<svg id="Ebene_1" xmlns="http://www.w3.org/2000/svg" x="0" y="0" viewBox="0 0 287.118 136.09" xml:space="preserve"><style>.st0{fill:#000}</style><path id="_x2E_" class="st0" d="M237.207 115.297c-2.308-2.412-3.459-6.707-3.459-12.893 0-6.182 1.151-10.531 3.459-13.049 2.303-2.514 6.84-3.771 13.598-3.771 6.761 0 11.291 1.258 13.601 3.771 2.303 2.518 3.457 6.867 3.457 13.049 0 6.186-1.154 10.48-3.457 12.893-2.31 2.41-6.84 3.615-13.601 3.615-6.758 0-11.295-1.205-13.598-3.615z"/><path id="L" class="st0" d="M228.247 117.968h-62.88V19.716h31.439v73.098h31.439l.002 25.154z"/><path class="st0" d="M144.304 29.701c-6.709-8.231-18.813-12.344-36.314-12.344-17.502 0-29.607 4.114-36.314 12.344C64.967 37.928 61.615 51 61.615 68.922c0 8.908.708 16.4 2.117 22.479 1.417 6.08 3.854 11.375 7.313 15.879 3.459 4.507 8.225 7.808 14.305 9.902 6.076 2.097 13.623 3.146 22.638 3.146 9.012 0 16.558-1.048 22.637-3.146 6.078-2.091 10.849-5.392 14.308-9.902 3.459-4.504 5.894-9.799 7.309-15.879 1.415-6.079 2.123-13.571 2.123-22.479 0-17.922-3.356-30.994-10.061-39.221zm-9.465 56.178l-1.359 1.361h-9.525V73.636h-2.721v.002h-.002V87.24h-2.721V73.636h-2.721v.002h-.002V87.24h-2.719V73.636h-2.723v.002h-.002V87.24h-2.719V73.636h-2.721v.002h-.002V87.24h-2.721V73.636H99.46v.002h-.002V87.24h-2.719V73.636h-2.717v.002h-.002v13.604h-9.523l-1.361-1.361v-9.523l1.361-.682v-2.724l.003.004v-4.762l-1.361-.68v-7.482l1.359-1.359H94.7v-.002h.003l.34-5.439h5.101v-.002h.003l.68-5.439h16.323l.68 5.441h5.104l.34 5.441h10.203l1.359 1.361v7.482l-1.356.678-.003.002v4.762l.003-.004v2.72l1.359.682v9.523z"/><path id="I" class="st0" d="M19.172 117.968V19.716h31.44v98.252h-31.44z"/><path class="st0" d="M287.118 136.09H0V0h287.118v136.09zM10 126.09h267.118V10H10v116.09z"/></svg>
